<?xml version="1.0" encoding="utf-8"?>
<!-- Generator: Adobe Illustrator 24.2.0, SVG Export Plug-In . SVG Version: 6.00 Build 0)  -->
<svg version="1.1" id="Layer_1" xmlns="http://www.w3.org/2000/svg" xmlns:xlink="http://www.w3.org/1999/xlink" x="0px" y="0px"
	 viewBox="0 0 528.75 144.18" style="enable-background:new 0 0 528.75 144.18;" xml:space="preserve">
<style type="text/css">
	.st0{fill:#3760AB;}
</style>
<g>
	<g>
		<path class="st0" d="M26.73,109.18c-4.14-0.85-8.02-2.12-11.64-3.78c-3.62-1.67-6.94-3.73-9.94-6.19l8.17-11.95
			c3.6,2.96,7.64,5.2,12.13,6.72c4.48,1.52,9.23,2.28,14.25,2.28c6.26,0,11.12-1.08,14.57-3.25c3.45-2.17,5.18-5.23,5.18-9.2v-0.06
			c0-2.79-0.77-5.01-2.32-6.66c-1.54-1.65-3.56-2.86-6.05-3.63c-2.49-0.77-5.68-1.49-9.59-2.16c-0.13-0.04-0.26-0.06-0.39-0.06
			c-0.13,0-0.26-0.02-0.39-0.06l-1.16-0.19c-6.26-1-11.41-2.19-15.44-3.57c-4.03-1.38-7.46-3.84-10.29-7.38
			C11,56.5,9.59,51.48,9.59,44.97v-0.06c0-5.75,1.33-10.67,3.99-14.76c2.66-4.09,6.52-7.19,11.58-9.32
			c5.06-2.13,11.15-3.19,18.27-3.19c3.35,0,6.7,0.37,10.07,1.09c3.37,0.73,6.67,1.79,9.91,3.19c3.24,1.4,6.38,3.14,9.42,5.22
			l-7.46,12.32c-3.6-2.5-7.27-4.4-11-5.69c-3.73-1.29-7.38-1.94-10.94-1.94c-5.92,0-10.5,1.05-13.73,3.16
			c-3.24,2.11-4.86,5.08-4.86,8.91v0.06c0,2.88,0.84,5.15,2.51,6.82c1.67,1.67,3.76,2.89,6.27,3.66c2.51,0.77,6.02,1.59,10.52,2.47
			c0.17,0.04,0.33,0.07,0.48,0.09c0.15,0.02,0.31,0.05,0.48,0.09c0.21,0.04,0.45,0.08,0.71,0.13c0.26,0.04,0.49,0.08,0.71,0.13
			c5.79,1.13,10.63,2.48,14.51,4.07c3.88,1.58,7.13,4.13,9.75,7.63c2.62,3.5,3.92,8.28,3.92,14.32v0.13
			c0,5.67-1.37,10.53-4.12,14.57c-2.75,4.04-6.73,7.12-11.97,9.23c-5.23,2.11-11.54,3.16-18.91,3.16
			C35.19,110.46,30.87,110.03,26.73,109.18z"/>
		<path class="st0" d="M90.77,18.58h15.38v90.95H90.77V18.58z M130.33,70.18c0-3.88-1.07-6.88-3.22-9.01
			c-2.15-2.13-5.19-3.19-9.13-3.19c-3.77,0-6.69,0.98-8.75,2.94c-2.06,1.96-3.09,4.73-3.09,8.32l-1.35-13.45
			c2.02-3.92,4.56-6.92,7.62-9.01c3.07-2.08,6.68-3.13,10.84-3.13c7.12,0,12.64,2.3,16.57,6.91c3.92,4.61,5.89,11.12,5.89,19.55
			v39.41h-15.38V70.18z"/>
		<path class="st0" d="M175.4,107.15c-4.23-2.21-7.44-5.43-9.65-9.66c-2.21-4.23-3.31-9.33-3.31-15.29V71.62
			c0-5.88,1.1-10.92,3.31-15.11c2.21-4.19,5.42-7.38,9.65-9.57c4.22-2.19,9.3-3.28,15.21-3.28s10.99,1.09,15.21,3.28
			c4.22,2.19,7.44,5.38,9.65,9.57c2.21,4.19,3.31,9.23,3.31,15.11v10.76c0,5.92-1.1,10.98-3.31,15.17c-2.21,4.19-5.43,7.39-9.65,9.6
			c-4.22,2.21-9.3,3.32-15.21,3.32S179.62,109.36,175.4,107.15z M200.07,92.54c2.23-2.4,3.35-5.79,3.35-10.16V71.62
			c0-4.34-1.12-7.69-3.35-10.07c-2.23-2.38-5.38-3.57-9.46-3.57c-4.08,0-7.23,1.19-9.46,3.57c-2.23,2.38-3.35,5.73-3.35,10.07v10.76
			c0,4.38,1.1,7.77,3.31,10.16c2.21,2.4,5.37,3.6,9.49,3.6C194.69,96.14,197.84,94.94,200.07,92.54z"/>
		<path class="st0" d="M248,107.08c-4.46-2.25-7.87-5.56-10.23-9.91c-2.36-4.36-3.54-9.62-3.54-15.79v-7.32
			c0-6.42,1.13-11.91,3.38-16.45s5.53-8.01,9.84-10.38c4.31-2.38,9.49-3.57,15.54-3.57c5.7,0,10.58,1.39,14.64,4.16
			c4.05,2.77,7.14,6.79,9.26,12.04c2.12,5.25,3.18,11.59,3.18,19.02v4.25h-45.35V72.18h31.07l-0.06-0.69
			c-0.43-4.54-1.74-8.07-3.92-10.57c-2.19-2.5-5.13-3.75-8.81-3.75c-4.63,0-8.21,1.41-10.74,4.22c-2.53,2.81-3.8,6.81-3.8,11.98
			v8.26c0,4.92,1.37,8.71,4.12,11.35c2.74,2.65,6.6,3.97,11.58,3.97c2.53,0,5.03-0.47,7.49-1.41c2.47-0.94,4.69-2.24,6.66-3.91
			l10.04,9.13c-3.39,3.09-7.2,5.47-11.42,7.16c-4.22,1.69-8.48,2.53-12.77,2.53C257.84,110.46,252.46,109.34,248,107.08z"/>
		<path class="st0" d="M299.72,44.6h14.99l21.49,56.42l-9.2,13.82L299.72,44.6z M360.12,44.6l-29.08,80.13
			c-1.07,2.96-2.43,5.31-4.08,7.04c-1.65,1.73-3.7,2.97-6.14,3.72c-2.44,0.75-5.45,1.13-9.01,1.13h-3.28v-14.45h3.28
			c2.19,0,3.96-0.44,5.31-1.31c1.35-0.88,2.46-2.36,3.31-4.44l24.7-71.81H360.12z"/>
	</g>
</g>
<g>
	<g>
		<path class="st0" d="M460.04,123.96h-28.73c-1.46,0-2.43,1.14-2.43,2.84c0,1.71,0.97,2.84,2.43,2.84h28.73
			c1.46,0,2.43-1.14,2.43-2.84C462.47,125.1,461.25,123.96,460.04,123.96z"/>
		<path class="st0" d="M447.38,112.14c0-1.81-0.97-3.02-2.43-3.02h-36.03c-1.46,0-2.43,1.21-2.43,3.02c0,1.81,0.97,3.02,2.43,3.02
			h36.03C446.4,115.16,447.38,113.95,447.38,112.14z"/>
		<path class="st0" d="M423.03,97.96c0-1.81-0.97-3.02-2.43-3.02h-19.48c-1.46,0-2.43,1.21-2.43,3.02c0,1.81,0.97,3.02,2.43,3.02
			h19.48C421.81,100.98,423.03,99.47,423.03,97.96z"/>
		<path class="st0" d="M392.84,95.85c-0.97-1.21-2.68-1.21-3.41,0c-0.24,0.3-0.49,0.6-0.49,0.91c0,0.3-0.24,0.6-0.24,1.21
			c0,0.91,0.24,1.51,0.73,2.11c0.49,0.6,0.97,0.91,1.7,0.91c0.73,0,1.22-0.3,1.7-0.91s0.73-1.21,0.73-2.11c0-0.3,0-0.91-0.24-1.21
			C393.33,96.45,393.08,96.15,392.84,95.85z"/>
		<path class="st0" d="M528.43,101.05c-0.7-2.12-2.1-3.77-4.2-4.48c-3.74-1.42-23.35-8.96-23.35-8.96c-2.1-0.71-3.97-2.12-5.14-4.25
			l-5.6-9.2h0.47c1.4,0,2.34-0.94,2.34-2.36s-0.93-2.36-2.34-2.36h-3.27l-2.57-4.01H485c1.4,0,2.33-0.94,2.33-2.36
			S486.4,60.7,485,60.7h-3.27l-2.1-3.3h0.23c1.4,0,2.34-0.94,2.34-2.36s-0.93-2.36-2.34-2.36h-3.27l-2.8-4.72c0,0,0-0.24-0.23-0.24
			c-2.57-3.3-6.3-4.72-10.27-4.25c-3.27,0.47-6.07,2.36-7.24,5.19c-0.23,0.71-0.23,1.42,0.23,2.12l16.81,29.02
			c1.4,2.36,3.5,4.01,5.84,4.95l20.08,7.31c0.23,0,19.61,7.55,23.35,8.96c0.7,0.24,1.17,0.71,1.4,1.65c0.47,1.18,0,3.07-0.7,4.72
			h-35.73c-2.33,0-4.44-0.71-6.3-2.12l-59.78-44.82c1.4-1.18,2.1-3.07,1.87-4.95l-2.34-22.65c0.7-1.42,1.87-3.3,2.57-4.25
			s1.87-1.18,2.57-0.47c0.7,0.47,3.27,3.07,9.81,13.21c3.5,4.95,8.87,8.49,14.71,9.67c0.23,0,0.23,0,0.47,0
			c1.17,0,2.1-0.71,2.34-1.89c0.23-1.18-0.7-2.6-1.87-2.83c-4.67-0.71-8.87-3.54-11.68-7.55c-7.71-12.27-10.04-13.92-10.97-14.63
			c-2.8-2.12-6.54-1.42-8.87,1.18l-13.78,21.7c-0.93,1.42-1.17,2.83-0.93,4.95l0,0c-1.63,0.47-3.27,1.42-4.2,3.07L397.9,60
			c-0.93,1.65-1.4,3.54-0.93,5.43c0.47,1.89,1.63,3.54,3.04,4.48l17.98,11.56l0.23,0.24c17.51,11.56,41.56,27.13,54.41,35.39
			c3.97,2.6,8.41,3.77,13.08,3.77h14.01c0,0,0,0,0.23,0c8.87,0,20.78-2.6,25.69-9.67C528.2,108.36,529.36,104.58,528.43,101.05z
			 M480.8,80.05c-1.4-0.47-2.57-1.65-3.5-2.83l-16.11-27.84c0.7-0.71,1.87-1.18,3.04-1.42c1.17-0.24,3.74,0,5.84,2.36l1.17,1.89
			h-0.47c-1.4,0-2.33,0.94-2.33,2.36s0.93,2.36,2.33,2.36h3.5l2.1,3.3h-0.47c-1.4,0-2.33,0.94-2.33,2.36c0,1.42,0.93,2.36,2.33,2.36
			h3.5l2.57,4.01h-0.47c-1.4,0-2.33,0.94-2.33,2.36c0,1.42,0.93,2.36,2.33,2.36h3.27l5.84,9.67L480.8,80.05z M410.28,49.38
			L416.82,39l1.63,16.75c0,0.71-0.47,0.94-0.7,1.18c-0.23,0.24-0.7,0.24-1.17,0l-5.6-4.25C410.05,51.74,409.81,50.32,410.28,49.38z
			 M500.41,116.14L500.41,116.14h-14.24c-3.74,0-7.47-1.18-10.74-3.07c-11.44-7.31-31.76-20.76-48.57-31.61l0,0l-24.28-15.33
			c-0.47-0.24-0.93-0.94-0.93-1.42c-0.23-0.71,0-1.18,0.23-1.89l3.04-4.95c0.23-0.47,0.93-0.94,1.63-0.94c0.7-0.24,1.4,0,1.87,0.47
			l1.63,1.18l67.48,50.49c2.57,1.89,5.84,3.07,9.11,3.07h31.29C513.25,114.73,506.48,116.14,500.41,116.14z"/>
	</g>
</g>
</svg>
